<?xml version="1.0" encoding="UTF-8" standalone="no"?>
<!-- Created with Inkscape (http://www.inkscape.org/) -->

<svg
   xmlns:dc="http://purl.org/dc/elements/1.1/"
   xmlns:cc="http://creativecommons.org/ns#"
   xmlns:rdf="http://www.w3.org/1999/02/22-rdf-syntax-ns#"
   xmlns:svg="http://www.w3.org/2000/svg"
   xmlns="http://www.w3.org/2000/svg"
   xmlns:xlink="http://www.w3.org/1999/xlink"
   xmlns:inkscape="http://www.inkscape.org/namespaces/inkscape"
   version="1.1"
   width="1252.879"
   height="1332.2274"
   viewBox="0 0 1252.879 1332.2274"
   id="svg2"
   xml:space="preserve"><metadata
   id="metadata110"><rdf:RDF><cc:Work
       rdf:about=""><dc:format>image/svg+xml</dc:format><dc:type
         rdf:resource="http://purl.org/dc/dcmitype/StillImage" /><dc:title></dc:title></cc:Work></rdf:RDF></metadata>
<defs
   id="defs3">
	
	<inkscape:path-effect
   effect="spiro"
   id="path-effect4748" />
	<inkscape:path-effect
   effect="spiro"
   id="path-effect4734" />
	<inkscape:path-effect
   effect="spiro"
   id="path-effect4722" />
	<inkscape:path-effect
   effect="spiro"
   id="path-effect4712" />
	<inkscape:path-effect
   effect="spiro"
   id="path-effect4706" />
	<inkscape:path-effect
   effect="spiro"
   id="path-effect4702" />
	<inkscape:path-effect
   effect="spiro"
   id="path-effect4698" />
	<inkscape:path-effect
   effect="spiro"
   id="path-effect4694" />
	<inkscape:path-effect
   effect="spiro"
   id="path-effect3840" />
	<inkscape:path-effect
   effect="spiro"
   id="path-effect3836" />
	<inkscape:path-effect
   effect="spiro"
   id="path-effect3832" />
	<inkscape:path-effect
   effect="spiro"
   id="path-effect3828" />
	<inkscape:path-effect
   effect="spiro"
   id="path-effect3824" />
	<inkscape:path-effect
   effect="spiro"
   id="path-effect3820" />
	<inkscape:path-effect
   effect="spiro"
   id="path-effect3816" />
	<inkscape:path-effect
   effect="spiro"
   id="path-effect3812" />
	<inkscape:path-effect
   effect="spiro"
   id="path-effect3808" />
	<inkscape:path-effect
   effect="spiro"
   id="path-effect3804" />
	<inkscape:path-effect
   effect="spiro"
   id="path-effect3800" />
	<inkscape:path-effect
   effect="spiro"
   id="path-effect3796" />
	<inkscape:path-effect
   effect="spiro"
   id="path-effect3792" />
	<inkscape:path-effect
   effect="spiro"
   id="path-effect3788" />
	<inkscape:path-effect
   effect="spiro"
   id="path-effect3784" />
	<inkscape:path-effect
   effect="spiro"
   id="path-effect3012" />
	<inkscape:path-effect
   effect="spiro"
   id="path-effect3006" />
	<inkscape:path-effect
   effect="spiro"
   id="path-effect2996" />
	<inkscape:path-effect
   effect="spiro"
   id="path-effect2987" />
<linearGradient
   x1="629.12817"
   y1="496.14841"
   x2="629.12817"
   y2="832.45697"
   id="linearGradient3110"
   xlink:href="#rect4744_1_"
   gradientUnits="userSpaceOnUse"
   gradientTransform="translate(-470.6263,-416.02067)" /></defs>


<rect
   width="1251.251"
   height="951.755"
   x="1.628"
   y="-2.7343751e-05"
   id="rect3175"
   style="fill:#d4d2cd" />
<rect
   width="1251.251"
   height="319.47198"
   x="1.628"
   y="636.19397"
   id="rect4724"
   style="fill:#4d4d4d" />
<linearGradient
   x1="629.12817"
   y1="496.14841"
   x2="629.12817"
   y2="832.45697"
   id="rect4744_1_"
   gradientUnits="userSpaceOnUse">
	<stop
   id="stop37"
   style="stop-color:#d4d2cd;stop-opacity:1"
   offset="0" />
	<stop
   id="stop39"
   style="stop-color:#b3b3b3;stop-opacity:1"
   offset="1" />
</linearGradient>

<rect
   width="30.653"
   height="537.31799"
   x="197.916"
   y="47.68399"
   id="rect2989" />
<path
   d="M 782.911,96.92698 H 72.37 l -29.16,30.66 h 764.931 l -25.23,-30.66 z"
   id="rect2991" />
<path
   d="m 733.24164,493.80475 0,631.05625"
   id="path2994"
   style="fill:none;stroke:#000000;stroke-width:2" />
<rect
   width="30.653"
   height="381.88901"
   x="197.916"
   y="585.00195"
   id="rect3000"
   style="fill:#ffff00" />
<rect
   width="1250.036"
   height="53.432999"
   x="0"
   y="952.03693"
   id="rect3002" />
<path
   d="m 733.74091,1126.4312 c -0.33932,3.0631 0.45463,6.2389 2.1955,8.782 0.78665,1.1491 1.75281,2.1651 2.56447,3.2967 0.81167,1.1316 1.48,2.4279 1.54377,3.819 0.0616,1.3435 -0.47507,2.701 -1.42927,3.6488 -0.9542,0.9479 -2.30919,1.4747 -3.65352,1.4339 -1.2667,-0.038 -2.51155,-0.5764 -3.40765,-1.4725 -0.89611,-0.8961 -1.43401,-2.1409 -1.47247,-3.4076"
   id="path3004"
   style="fill:none;stroke:#000000" />
<path
   d="m 287.61079,797.31799 a 25.248274,25.248274 0 1 1 -50.49655,0 25.248274,25.248274 0 1 1 50.49655,0 z"
   transform="translate(0.107,-238.86102)"
   id="path3008"
   style="fill:#ffffff" />
<path
   d="m 735.06558,1144.9066 0,19.5676"
   id="path3010"
   style="fill:none;stroke:#000000;stroke-linecap:round" />
<path
   d="M 438.6197,475.97226 228.54509,426.69179 197.12838,427.65482 72.272348,476.82997"
   id="path3782"
   style="fill:none;stroke:#000000;stroke-width:2" />
<path
   d="m 228.81452,425.65638 -30.4325,52.71065 30.60631,53.01169"
   id="path3786"
   style="fill:#ff0000" />
<path
   d="m 228.81452,528.91515 -30.4325,33.09832 30.60631,33.28734"
   id="path3790"
   style="fill:#ff0000" />
<path
   d="m 228.81452,592.01773 -30.4325,32.00366 30.60631,32.18643"
   id="path3794"
   style="fill:#ff0000" />
<path
   d="m 228.81452,654.45199 -30.4325,47.51459 30.60631,47.78592"
   id="path3798"
   style="fill:#ff0000" />
<path
   d="m 228.81452,746.46943 -30.4325,44.53275 30.60631,44.7871"
   id="path3802"
   style="fill:#ff0000" />
<path
   d="m 228.81452,833.63368 -30.4325,65.4471 30.60631,65.8209"
   id="path3806"
   style="fill:#ff0000" />
<path
   d="m 805.77413,505.80299 -52.71064,-30.4325 -53.0117,30.60631"
   id="path3810"
   style="fill:#ff0000" />
<path
   d="m 366.2263,505.80299 -32.50818,-30.4325 -32.69385,30.60631"
   id="path3814"
   style="fill:#ff0000" />
<path
   d="m 302.20421,505.80299 -36.14462,-30.4325 -36.35107,30.60631"
   id="path3818"
   style="fill:#ff0000" />
<path
   d="m 196.85141,505.80299 -36.14462,-30.4325 -36.35107,30.60631"
   id="path3822"
   style="fill:#ff0000" />
<path
   d="M 124.72526,505.80299 83.732054,475.37049 42.504707,505.9768"
   id="path3826"
   style="fill:#ff0000" />
<path
   d="m 228.81452,1033.34 -30.4325,55.7005 30.60631,56.0186"
   id="path3830"
   style="fill:#008000" />
<path
   d="m 228.81452,1218.9706 -30.4325,-36.8505 30.60631,-37.061"
   id="path3834"
   style="fill:#008000" />
<path
   d="m 228.81452,1218.9706 -30.4325,56.3033 30.60631,56.6248"
   id="path3838"
   style="fill:#008000" />
<rect
   width="11.238"
   height="11.875"
   x="727.86499"
   y="738.79797"
   id="rect3842" />
<rect
   width="1248.674"
   height="72.182999"
   x="3.8110001"
   y="585.00195"
   id="rect2998"
   style="fill:#808080" />
<text
   x="194.866"
   y="615.63995"
   id="text67"
   style="font-size:18.5515995px;fill:#ffffff;font-family:NotCourierSans">LE CHANTIER DE LA CAVE12-PRAIRIE EST COMMENCÉ</text>

<text
   x="194.866"
   y="638.82935"
   id="text69"
   style="font-size:18.5515995px;fill:#ffffff;font-family:NotCourierSans">RETOUR DE LA PROGRAMMATION (NOMADE) - JEUDI 7 SEPTEMBRE</text>

<path
   d="m 464.54759,505.80299 -49.89598,-30.4325 -50.18095,30.60631"
   id="path4692"
   style="fill:#ff0000" />
<path
   d="m 518.31402,505.80299 -27.861,-30.4325 -28.0201,30.60631"
   id="path4696"
   style="fill:#ff0000" />
<path
   d="m 586.80164,505.80299 -34.34835,-30.4325 -34.54453,30.60631"
   id="path4700"
   style="fill:#ff0000" />
<path
   d="M 701.79822,505.80299 643.58834,475.37049 585.046,505.9768"
   id="path4704"
   style="fill:#ff0000" />
<path
   d="m 740.70236,829.46527 a 7.5677214,2.989717 0 1 1 -15.13544,0 7.5677214,2.989717 0 1 1 15.13544,0 z"
   transform="translate(0.107,-238.86102)"
   id="path4708" />
<path
   d="m 733.24164,961.86588 0,6.9137"
   id="path4710"
   style="fill:none;stroke:#000000;stroke-width:2" />
<path
   d="m 1090.8494,362.17773 a 77.162796,77.162796 0 1 1 -154.32561,0 77.162796,77.162796 0 1 1 154.32561,0 z"
   transform="translate(0.107,-238.86102)"
   id="path4714" />
<path
   d="m 1090.8494,362.17773 a 77.162796,77.162796 0 1 1 -154.32561,0 77.162796,77.162796 0 1 1 154.32561,0 z"
   transform="translate(0.107,-238.86102)"
   id="path4716"
   style="fill:#4d4d4d" />
<path
   d="m 829.57049,987.65619 -12.2403,-12.12685 -14.49413,9.31695 7.75085,-15.38862 -13.33987,-10.90565 17.03059,2.61616 6.24964,-16.05701 2.77463,17.0055 17.20236,0.98187 -15.31578,7.89382 z"
   transform="translate(0.107,-238.86102)"
   id="path4718" />
<path
   d="M 701.79822,1332.0535 643.58834,1301.621 585.046,1332.2273"
   id="path4720" />
<path
   d="m 901.03157,1041.4202 1.85729,-7.0628 -6.49148,-3.3457 7.29109,-0.4162 1.17601,-7.2077 2.64886,6.8057 7.21829,-1.1088 -5.65401,4.6222 3.28514,6.5224 -6.14323,-3.9489 z"
   transform="translate(0.107,-238.86102)"
   id="path4726"
   style="fill:#ffffff" />
<path
   d="m 1037.973,992.71263 -7.958,-7.88421 -9.4233,6.05736 5.0392,-10.00483 -8.6729,-7.09024 11.0724,1.70088 4.0632,-10.43938 1.8039,11.05603 11.184,0.63836 -9.9575,5.13212 z"
   transform="translate(0.107,-238.86102)"
   id="path4728"
   style="fill:#ffffff" />
<path
   d="m 415.39967,1064.6904 -5.18796,-5.1399 -6.14323,3.9489 3.28514,-6.5223 -5.654,-4.6223 7.21829,1.1088 2.64886,-6.8056 1.176,7.2076 7.2911,0.4162 -6.49148,3.3457 z"
   transform="translate(0.107,-238.86102)"
   id="path4730"
   style="fill:#ffffff" />
<path
   d="M 394.03907,807.46298 303.68999,755.2999"
   id="path4732"
   style="fill:none;stroke:#ffffff" />
<path
   d="m 774.93328,1331.8836 -58.20988,-60.1815 -58.54234,60.5252"
   id="path4746" />
<ellipse
   cx="215.373"
   cy="833.73199"
   rx="31.857"
   ry="5.677"
   transform="translate(0.107,-238.86102)"
   id="ellipse86" />
<polygon
   points="607.158,1190.047 615.602,1190.047 370.161,896.346 297.666,896.346 "
   transform="translate(0.107,-238.86102)"
   id="polygon88"
   style="fill:#ffffff" />
<polygon
   points="855.701,1190.047 850.818,1190.047 992.822,895.778 1034.766,895.778 "
   transform="translate(0.107,-238.86102)"
   id="polygon90"
   style="fill:#ffffff" />
<polygon
   points="297.666,1116.242 282.687,1124.116 285.548,1107.438 273.429,1095.625 290.177,1093.191 297.666,1078.017 305.155,1093.191 321.902,1095.625 309.784,1107.438 312.645,1124.116 "
   transform="translate(0.107,-238.86102)"
   id="polygon92"
   style="fill:#ffffff" />
<polygon
   points="1081.808,1052.377 1094.984,1055.674 1081.808,1058.972 1091.57,1068.416 1078.51,1064.684 1082.242,1077.743 1072.798,1067.981 1069.5,1081.158 1066.202,1067.981 1056.758,1077.743 1060.49,1064.684 1047.431,1068.416 1057.193,1058.972 1044.017,1055.674 1057.193,1052.377 1047.431,1042.933 1060.49,1046.664 1056.758,1033.605 1066.202,1043.367 1069.5,1030.19 1072.798,1043.367 1082.242,1033.605 1078.51,1046.664 1091.57,1042.933 "
   transform="translate(0.107,-238.86102)"
   id="polygon94"
   style="fill:#ffffff" />
<g
   transform="translate(0.107,-238.86102)"
   id="g96">
	<path
   d="m 630.5,950.5 c 1,4 2,7 2,11 2,-1 4,-3 5,-5 1,-1 2,-1 3,-2 -1,3 -2,7 -3,10 3,-1 7,-2 10,-3 -3,3 -5,5 -8,8 3,1 7,2 10,3 -3,2 -8,0 -11,2 1,4 5,5 8,7 -4,0 -8,0 -11,-3 1,3 2,7 3,10 -4,-1 -5,-6 -8,-8 -1,4 -3,7 -2,11 -1,-4 -2,-7 -3,-11 -3,1 -4,5 -7,7 1,-3 2,-7 3,-10 -3,1 -7,2 -10,3 2,-3 5,-6 8,-8 -4,-1 -7,-2 -11,-3 3,-2 8,0 11,-2 -1,-3 -5,-4 -7,-7 4,0 7,0 10,3 1,-4 -1,-7 -3,-10 3,2 6,5 8,8 1,-4 2,-7 3,-11 l 0,0 z"
   id="path98"
   style="fill:#ffffff" />
</g>
<polygon
   points="453.207,1134.564 456.235,1140.937 449.864,1137.907 447.5,1144.555 445.136,1137.907 438.765,1140.937 441.794,1134.564 435.147,1132.201 441.794,1129.838 438.765,1123.466 445.136,1126.495 447.5,1119.848 449.864,1126.495 456.235,1123.466 453.207,1129.838 459.853,1132.201 "
   transform="translate(0.107,-238.86102)"
   id="polygon100"
   style="fill:#ffffff" />
<polygon
   points="796.429,1129.086 779.537,1119.848 796.429,1110.609 805.667,1093.718 814.906,1110.609 831.797,1119.848 814.906,1129.086 805.667,1145.978 "
   transform="translate(0.107,-238.86102)"
   id="polygon102"
   style="fill:#ffffff" />
<polygon
   points="1127.265,973.288 1112.206,965.053 1127.265,956.817 1135.5,941.759 1143.736,956.817 1158.794,965.053 1143.736,973.288 1135.5,988.347 "
   transform="translate(0.107,-238.86102)"
   id="polygon104"
   style="fill:#ffffff" />
<polygon
   points="75.273,973.288 49.492,965.053 75.273,956.817 83.508,931.037 91.743,956.817 117.524,965.053 91.743,973.288 83.508,999.068 "
   transform="translate(0.107,-238.86102)"
   id="polygon106"
   style="fill:#ffffff" />
<polyline
   points="969.5,1197.5 942.791,1145.978 969.5,1162.464 979.5,1119.848 979.5,1158.674 1005.5,1135.934 991.5,1197.5 "
   id="polyline108"
   transform="translate(0.107,-238.86102)" />
</svg>